name Walk8.mot
datacolumns 19
datarows 15
range 1.81300000 1.82700000
endheader

                time	   L_ground_force_vx	   L_ground_force_vy	   L_ground_force_vz	   L_ground_force_px	   L_ground_force_py	   L_ground_force_pz	   R_ground_force_vx	   R_ground_force_vy	   R_ground_force_vz	   R_ground_force_px	   R_ground_force_py	   R_ground_force_pz	   L_ground_torque_x	   L_ground_torque_y	   L_ground_torque_z	   R_ground_torque_x	   R_ground_torque_y	   R_ground_torque_z	
          1.81300000	         38.55749113	        930.88529533	         69.55927402	         -0.10893249	          0.00000000	         -0.03044665	          0.00000000	          0.00000000	          0.00000000	          0.00000000	          0.00000000	          0.00000000	          0.00000000	         -1.16800934	          0.00000000	          0.00000000	          0.00000000	          0.00000000	
          1.81400000	         39.09744822	        932.19851466	         69.83751732	         -0.10877482	          0.00000000	         -0.03042881	          0.00000000	          0.00000000	          0.00000000	          0.00000000	          0.00000000	          0.00000000	          0.00000000	         -1.21453764	          0.00000000	          0.00000000	          0.00000000	          0.00000000	
          1.81500000	         39.63788388	        933.49820444	         70.07357046	         -0.10859710	          0.00000000	         -0.03044067	          0.00000000	          0.00000000	          0.00000000	          0.00000000	          0.00000000	          0.00000000	          0.00000000	         -1.23930587	          0.00000000	          0.00000000	          0.00000000	          0.00000000	
          1.81600000	         40.14339543	        934.77775689	         70.27727229	         -0.10840550	          0.00000000	         -0.03048971	          0.00000000	          0.00000000	          0.00000000	          0.00000000	          0.00000000	          0.00000000	          0.00000000	         -1.23813404	          0.00000000	          0.00000000	          0.00000000	          0.00000000	
          1.81700000	         40.61698681	        936.01280703	         70.47394077	         -0.10819326	          0.00000000	         -0.03057108	          0.00000000	          0.00000000	          0.00000000	          0.00000000	          0.00000000	          0.00000000	          0.00000000	         -1.21995020	          0.00000000	          0.00000000	          0.00000000	          0.00000000	
          1.81800000	         41.08409262	        937.20787132	         70.69447121	         -0.10794897	          0.00000000	         -0.03066769	          0.00000000	          0.00000000	          0.00000000	          0.00000000	          0.00000000	          0.00000000	          0.00000000	         -1.19479776	          0.00000000	          0.00000000	          0.00000000	          0.00000000	
          1.81900000	         41.56302624	        938.42388771	         70.95452177	         -0.10767974	          0.00000000	         -0.03076273	          0.00000000	          0.00000000	          0.00000000	          0.00000000	          0.00000000	          0.00000000	          0.00000000	         -1.17184937	          0.00000000	          0.00000000	          0.00000000	          0.00000000	
          1.82000000	         42.05080054	        939.73288389	         71.24159865	         -0.10740708	          0.00000000	         -0.03084770	          0.00000000	          0.00000000	          0.00000000	          0.00000000	          0.00000000	          0.00000000	          0.00000000	         -1.15762101	          0.00000000	          0.00000000	          0.00000000	          0.00000000	
          1.82100000	         42.53548899	        941.18104442	         71.53532938	         -0.10714774	          0.00000000	         -0.03091434	          0.00000000	          0.00000000	          0.00000000	          0.00000000	          0.00000000	          0.00000000	          0.00000000	         -1.15251758	          0.00000000	          0.00000000	          0.00000000	          0.00000000	
          1.82200000	         43.02957696	        942.77251975	         71.82814948	         -0.10690613	          0.00000000	         -0.03095463	          0.00000000	          0.00000000	          0.00000000	          0.00000000	          0.00000000	          0.00000000	          0.00000000	         -1.15661676	          0.00000000	          0.00000000	          0.00000000	          0.00000000	
          1.82300000	         43.57586304	        944.45157092	         72.10870174	         -0.10667626	          0.00000000	         -0.03097396	          0.00000000	          0.00000000	          0.00000000	          0.00000000	          0.00000000	          0.00000000	          0.00000000	         -1.17504475	          0.00000000	          0.00000000	          0.00000000	          0.00000000	
          1.82400000	         44.19054703	        946.15012356	         72.34976711	         -0.10645601	          0.00000000	         -0.03098803	          0.00000000	          0.00000000	          0.00000000	          0.00000000	          0.00000000	          0.00000000	          0.00000000	         -1.20773587	          0.00000000	          0.00000000	          0.00000000	          0.00000000	
          1.82500000	         44.82529873	        947.84885081	         72.54012424	         -0.10625893	          0.00000000	         -0.03099781	          0.00000000	          0.00000000	          0.00000000	          0.00000000	          0.00000000	          0.00000000	          0.00000000	         -1.24367775	          0.00000000	          0.00000000	          0.00000000	          0.00000000	
          1.82600000	         45.42405180	        949.56166910	         72.71074968	         -0.10609938	          0.00000000	         -0.03098178	          0.00000000	          0.00000000	          0.00000000	          0.00000000	          0.00000000	          0.00000000	          0.00000000	         -1.27414572	          0.00000000	          0.00000000	          0.00000000	          0.00000000	
          1.82700000	         45.98782116	        951.29199682	         72.90883041	         -0.10596903	          0.00000000	         -0.03093032	          0.00000000	          0.00000000	          0.00000000	          0.00000000	          0.00000000	          0.00000000	          0.00000000	         -1.29969012	          0.00000000	          0.00000000	          0.00000000	          0.00000000	
